<svg xmlns="http://www.w3.org/2000/svg" xmlns:xlink="http://www.w3.org/1999/xlink" width="500" zoomAndPan="magnify" viewBox="0 0 375 374.999991" height="500" preserveAspectRatio="xMidYMid meet" version="1.0"><defs><filter x="0%" y="0%" width="100%" height="100%" id="932798baeb"><feColorMatrix values="0 0 0 0 1 0 0 0 0 1 0 0 0 0 1 0 0 0 1 0" color-interpolation-filters="sRGB"/></filter><g/><clipPath id="5c75aadfbb"><path d="M 125 58 L 337.652344 58 L 337.652344 321.78125 L 125 321.78125 Z M 125 58 " clip-rule="nonzero"/></clipPath><clipPath id="6750f3df1f"><path d="M 63.152344 120 L 153 120 L 153 300 L 63.152344 300 Z M 63.152344 120 " clip-rule="nonzero"/></clipPath><mask id="7eab0674d5"><g filter="url(#932798baeb)"><rect x="-37.5" width="450" fill="#000000" y="-37.499999" height="449.999989" fill-opacity="0.75"/></g></mask><clipPath id="a062752698"><path d="M 0.152344 0.480469 L 89.398438 0.480469 L 89.398438 179.761719 L 0.152344 179.761719 Z M 0.152344 0.480469 " clip-rule="nonzero"/></clipPath><clipPath id="f94d360a0c"><rect x="0" width="90" y="0" height="180"/></clipPath><clipPath id="b19d131b60"><path d="M 113 23.28125 L 192 23.28125 L 192 102 L 113 102 Z M 113 23.28125 " clip-rule="nonzero"/></clipPath></defs><path fill="#e0c1ae" d="M 186.585938 66.222656 C 185.375 66.222656 184.164062 66.253906 182.957031 66.3125 C 181.75 66.371094 180.542969 66.460938 179.339844 66.582031 C 178.136719 66.699219 176.933594 66.847656 175.738281 67.023438 C 174.542969 67.203125 173.347656 67.410156 172.164062 67.644531 C 170.976562 67.882812 169.796875 68.148438 168.621094 68.441406 C 167.449219 68.734375 166.285156 69.058594 165.125 69.410156 C 163.96875 69.761719 162.820312 70.140625 161.679688 70.550781 C 160.542969 70.957031 159.414062 71.390625 158.296875 71.855469 C 157.179688 72.320312 156.074219 72.808594 154.980469 73.328125 C 153.886719 73.84375 152.804688 74.390625 151.738281 74.960938 C 150.671875 75.53125 149.617188 76.128906 148.582031 76.75 C 147.542969 77.371094 146.523438 78.019531 145.515625 78.691406 C 144.511719 79.363281 143.519531 80.0625 142.550781 80.785156 C 141.578125 81.503906 140.625 82.25 139.6875 83.015625 C 138.753906 83.785156 137.839844 84.574219 136.941406 85.390625 C 136.046875 86.203125 135.167969 87.035156 134.3125 87.894531 C 133.457031 88.75 132.625 89.625 131.8125 90.523438 C 131 91.421875 130.210938 92.335938 129.441406 93.273438 C 128.675781 94.207031 127.929688 95.164062 127.210938 96.136719 C 126.488281 97.109375 125.792969 98.097656 125.121094 99.105469 C 124.449219 100.109375 123.800781 101.132812 123.179688 102.171875 C 122.558594 103.210938 121.960938 104.265625 121.390625 105.332031 C 120.820312 106.398438 120.277344 107.480469 119.761719 108.574219 C 119.242188 109.667969 118.753906 110.777344 118.289062 111.894531 C 117.828125 113.011719 117.390625 114.144531 116.984375 115.28125 C 116.578125 116.421875 116.199219 117.570312 115.847656 118.730469 C 115.496094 119.890625 115.171875 121.054688 114.878906 122.230469 C 114.585938 123.40625 114.320312 124.585938 114.082031 125.773438 C 113.847656 126.960938 113.640625 128.152344 113.464844 129.351562 C 113.285156 130.550781 113.136719 131.75 113.019531 132.957031 C 112.902344 134.160156 112.8125 135.367188 112.753906 136.578125 C 112.691406 137.785156 112.664062 138.996094 112.664062 140.207031 L 112.664062 313.234375 L 260.503906 313.234375 L 260.503906 140.207031 C 260.503906 138.996094 260.476562 137.785156 260.417969 136.578125 C 260.355469 135.367188 260.269531 134.160156 260.148438 132.957031 C 260.03125 131.75 259.882812 130.550781 259.703125 129.351562 C 259.527344 128.152344 259.320312 126.960938 259.085938 125.773438 C 258.847656 124.585938 258.582031 123.40625 258.289062 122.230469 C 257.996094 121.054688 257.671875 119.890625 257.320312 118.730469 C 256.972656 117.570312 256.589844 116.421875 256.183594 115.28125 C 255.777344 114.144531 255.339844 113.011719 254.878906 111.894531 C 254.414062 110.777344 253.925781 109.667969 253.40625 108.574219 C 252.890625 107.480469 252.347656 106.398438 251.777344 105.332031 C 251.207031 104.265625 250.609375 103.210938 249.988281 102.171875 C 249.367188 101.132812 248.71875 100.109375 248.046875 99.105469 C 247.375 98.097656 246.679688 97.109375 245.957031 96.136719 C 245.238281 95.164062 244.492188 94.207031 243.726562 93.273438 C 242.957031 92.335938 242.167969 91.421875 241.355469 90.523438 C 240.542969 89.625 239.710938 88.75 238.855469 87.894531 C 238 87.035156 237.121094 86.203125 236.226562 85.390625 C 235.332031 84.574219 234.414062 83.785156 233.480469 83.015625 C 232.542969 82.25 231.589844 81.503906 230.617188 80.785156 C 229.648438 80.0625 228.660156 79.363281 227.652344 78.691406 C 226.648438 78.019531 225.625 77.371094 224.585938 76.75 C 223.550781 76.128906 222.496094 75.53125 221.429688 74.960938 C 220.363281 74.390625 219.28125 73.84375 218.191406 73.328125 C 217.097656 72.808594 215.992188 72.320312 214.871094 71.855469 C 213.753906 71.390625 212.625 70.957031 211.488281 70.550781 C 210.347656 70.140625 209.199219 69.761719 208.042969 69.410156 C 206.882812 69.058594 205.71875 68.734375 204.546875 68.441406 C 203.371094 68.148438 202.191406 67.882812 201.003906 67.644531 C 199.820312 67.410156 198.628906 67.203125 197.429688 67.023438 C 196.234375 66.847656 195.035156 66.699219 193.828125 66.582031 C 192.625 66.460938 191.417969 66.371094 190.210938 66.3125 C 189.003906 66.253906 187.792969 66.222656 186.585938 66.222656 Z M 186.585938 66.222656 " fill-opacity="1" fill-rule="nonzero"/><g clip-path="url(#5c75aadfbb)"><path fill="#364546" d="M 332.84375 122.234375 C 320.324219 121.410156 308.246094 121.851562 295.917969 124.574219 C 283.585938 127.296875 273.339844 131.09375 262.464844 135.648438 C 263.035156 134.765625 263.539062 133.878906 264.109375 133.054688 C 264.234375 133.066406 264.339844 133.023438 264.425781 132.929688 C 275.175781 123.308594 284.28125 112.042969 292.058594 99.828125 C 295.917969 93.691406 299.457031 87.363281 302.871094 80.96875 C 306.285156 74.578125 309.953125 67.804688 312.863281 61.035156 C 313.054688 60.71875 312.546875 59.324219 312.230469 59.707031 C 309.703125 62.617188 306.667969 65.085938 303.945312 67.804688 C 301.226562 70.527344 298.445312 73.25 295.726562 76.035156 C 290.351562 81.707031 285.355469 87.699219 280.738281 94.007812 C 272.265625 105.527344 265.375 118.308594 262.210938 132.359375 L 260.503906 135.398438 C 260.378906 123.054688 260 110.652344 259.9375 98.3125 C 259.871094 85.96875 260.0625 72.238281 260.1875 59.261719 C 260.1875 58.375 259.492188 58.691406 259.175781 59.136719 C 255.195312 64.894531 253.675781 71.792969 253.105469 78.628906 C 252.539062 85.464844 252.285156 92.996094 252.222656 100.082031 C 252.160156 113.371094 253.234375 126.789062 258.355469 139.128906 L 254.054688 147.359375 C 254.007812 147.304688 253.984375 147.242188 253.992188 147.167969 C 253.898438 144.496094 253.644531 141.835938 253.234375 139.195312 C 252.789062 135.777344 252.347656 132.359375 251.714844 128.941406 C 250.703125 122.484375 249.375 116.03125 247.730469 109.703125 C 244.445312 96.792969 240.144531 84.007812 234.390625 72.046875 C 234.199219 71.667969 233.441406 70.96875 233.441406 71.855469 C 233.316406 85.082031 234.578125 97.929688 238.308594 110.652344 C 242.039062 123.371094 248.871094 135.839844 252.917969 148.878906 L 253.042969 149.257812 C 250.324219 154.761719 247.730469 160.269531 245.328125 165.902344 C 242.800781 152.675781 233.378906 142.167969 225.15625 132.042969 C 215.355469 119.953125 205.617188 107.742188 195.625 95.84375 C 194.550781 94.578125 194.679688 96.917969 194.867188 97.425781 C 199.828125 111.492188 206.699219 124.550781 215.480469 136.597656 C 219.648438 142.308594 224.15625 147.730469 229.015625 152.863281 C 231.605469 155.585938 234.261719 158.179688 236.980469 160.710938 C 239.699219 163.242188 241.851562 165.773438 244.761719 167.167969 C 243.304688 170.648438 241.914062 174.128906 240.585938 177.671875 C 240.449219 177.738281 240.40625 177.84375 240.460938 177.988281 C 238.6875 182.609375 237.109375 187.355469 235.589844 192.101562 L 235.402344 191.722656 C 224.523438 180.265625 213.457031 169.128906 202.710938 157.609375 C 191.960938 146.09375 181.398438 134.574219 170.777344 122.992188 C 170.082031 122.234375 169.699219 122.992188 169.828125 123.6875 C 171.027344 132.042969 175.328125 139.382812 180.449219 145.902344 C 185.574219 152.421875 191.515625 159.257812 197.335938 165.585938 C 208.148438 177.292969 220.097656 188.242188 234.707031 194.886719 C 233.566406 198.746094 232.492188 202.609375 231.542969 206.53125 C 231.503906 206.566406 231.484375 206.609375 231.480469 206.65625 C 227.8125 201.34375 223.007812 196.976562 218.011719 192.925781 C 211.816406 187.925781 205.808594 182.671875 199.671875 177.546875 L 181.777344 162.609375 C 175.835938 157.609375 170.015625 152.105469 163.628906 147.675781 C 162.492188 146.914062 163.3125 149.828125 163.566406 150.144531 C 167.867188 156.472656 171.851562 162.863281 176.847656 168.6875 C 181.890625 174.503906 187.328125 179.925781 193.160156 184.949219 C 204.667969 194.949219 217.316406 203.429688 230.34375 211.339844 C 229.265625 216.152344 228.253906 220.960938 227.433594 225.769531 L 227.371094 225.769531 L 226.421875 225.074219 C 225.589844 223.683594 224.578125 222.4375 223.386719 221.339844 C 220.414062 218.429688 217.191406 215.707031 214.089844 212.921875 C 207.769531 207.226562 201.445312 201.53125 194.996094 195.898438 C 188.542969 190.265625 182.726562 184.949219 176.53125 179.632812 C 170.332031 174.320312 165.210938 170.457031 158.632812 167.292969 C 157.179688 166.597656 158.253906 169.570312 158.507812 169.953125 C 166.457031 182.890625 176.28125 194.195312 187.976562 203.875 C 193.90625 208.71875 200.230469 212.980469 206.945312 216.65625 C 213.710938 220.453125 220.792969 223.683594 226.992188 228.367188 C 226.296875 232.667969 225.664062 237.035156 225.15625 241.402344 L 225.09375 241.402344 C 224.777344 241.09375 224.417969 240.839844 224.019531 240.644531 C 212.828125 229.566406 201.253906 219 189.367188 208.746094 C 183.296875 203.492188 177.164062 198.304688 170.902344 193.242188 C 164.640625 188.179688 159.835938 183.304688 153.070312 181.40625 C 151.933594 181.152344 153.007812 183.8125 153.195312 184.128906 C 161.480469 197.292969 171.40625 209.316406 183.550781 219.1875 C 189.679688 224.125 196.195312 228.492188 203.089844 232.289062 C 210.296875 236.277344 218.136719 239.1875 224.90625 243.996094 C 224.523438 247.542969 224.207031 251.085938 223.957031 254.691406 C 212.214844 242.789062 199.019531 232.8125 184.371094 224.757812 C 177.355469 220.917969 170.128906 217.542969 162.683594 214.632812 C 158.761719 213.050781 154.777344 211.65625 150.730469 210.390625 C 146.683594 209.125 142.953125 207.417969 139.160156 207.542969 C 138.335938 207.542969 139.222656 208.621094 139.601562 208.875 C 148.453125 221.339844 163.25 227.542969 176.59375 234.0625 C 192.339844 241.65625 207.957031 249.375 223.828125 256.71875 C 223.640625 260.199219 223.449219 263.679688 223.386719 267.222656 C 223.261719 267.097656 223.195312 266.96875 223.070312 266.90625 C 206.820312 258.871094 190.441406 251.148438 174.253906 243.046875 C 158.066406 234.949219 142.128906 226.59375 126.132812 218.304688 C 125.058594 217.796875 124.996094 218.746094 125.375 219.503906 C 129.988281 227.984375 137.578125 234.1875 145.609375 239.25 C 153.640625 244.3125 162.871094 249.25 171.660156 253.742188 C 187.847656 262.097656 204.984375 269.121094 223.324219 270.578125 C 223.261719 277.601562 223.449219 284.566406 223.957031 291.589844 C 225.035156 307.652344 227.609375 323.476562 231.671875 339.054688 C 231.796875 339.625 232.492188 339.941406 232.300781 339.179688 C 226.84375 316.789062 224.273438 294.070312 224.589844 271.019531 C 239.449219 273.867188 254.433594 276.085938 269.609375 276.402344 C 277.289062 276.632812 284.9375 276.296875 292.566406 275.386719 C 300.152344 274.4375 307.363281 272.351562 314.824219 270.578125 C 315.203125 270.453125 317.796875 268.871094 316.40625 268.679688 C 308.753906 267.667969 300.722656 267.855469 293.007812 267.539062 L 269.738281 266.589844 C 261.769531 266.273438 253.738281 266.085938 245.773438 265.640625 C 239.386719 265.324219 232.238281 265.515625 225.980469 266.90625 C 225.453125 267.238281 224.992188 267.640625 224.589844 268.109375 C 224.714844 264.375 224.90625 260.640625 225.09375 256.90625 L 225.347656 256.90625 C 240.398438 260.769531 255.953125 262.097656 271.316406 262.539062 C 279.03125 262.792969 286.746094 262.730469 294.460938 262.667969 C 302.175781 262.605469 309.511719 262.730469 316.71875 261.589844 C 318.238281 261.402344 316.785156 260.640625 315.960938 260.390625 C 300.976562 256.527344 286.242188 253.808594 270.8125 253.109375 C 255.382812 252.414062 240.207031 253.363281 225.285156 254.820312 C 225.535156 251.148438 225.851562 247.476562 226.296875 243.871094 L 226.613281 243.996094 C 242.699219 248.980469 259.160156 251.511719 275.996094 251.59375 C 283.992188 251.601562 291.960938 251.140625 299.898438 250.199219 C 304.074219 249.695312 308.246094 248.996094 312.421875 248.238281 C 316.59375 247.476562 320.640625 247.160156 323.992188 245.199219 C 324.625 244.820312 323.421875 244.3125 322.917969 244.25 C 309.195312 237.480469 293.195312 239.0625 278.402344 239.695312 C 261.074219 240.515625 243.746094 241.148438 226.484375 242.226562 C 227.054688 237.414062 227.6875 232.734375 228.507812 227.984375 C 242.734375 232.667969 257.089844 235.644531 272.078125 235.960938 C 287.0625 236.277344 303.0625 233.113281 318.617188 233.175781 C 320.894531 233.175781 320.832031 231.464844 318.554688 231.464844 L 317.035156 231.464844 C 314.132812 230.617188 311.179688 229.980469 308.183594 229.566406 C 304.328125 228.808594 300.40625 228.175781 296.546875 227.605469 C 289.148438 226.53125 281.6875 225.769531 274.226562 225.328125 C 259.113281 224.503906 243.746094 224.820312 228.761719 226.972656 L 228.699219 226.972656 C 229.582031 221.847656 230.660156 216.722656 231.859375 211.59375 C 246.277344 215.582031 260.882812 218.9375 275.808594 220.519531 C 283.4375 221.375 291.089844 221.625 298.761719 221.277344 C 306.476562 220.960938 313.8125 219.503906 321.335938 218.304688 C 321.714844 218.238281 324.433594 216.847656 323.105469 216.53125 C 315.519531 214.949219 307.550781 214.441406 299.835938 213.492188 L 276.691406 210.707031 C 268.789062 209.695312 260.820312 208.9375 252.917969 207.859375 C 246.46875 206.976562 239.890625 206.40625 233.378906 207.417969 C 233.164062 207.449219 232.972656 207.53125 232.808594 207.671875 C 233.882812 203.242188 235.085938 198.8125 236.476562 194.445312 C 243.242188 199.507812 251.398438 202.226562 259.554688 204 C 267.714844 205.773438 277.703125 207.292969 286.746094 208.492188 C 303.632812 210.835938 320.894531 211.722656 336.957031 207.480469 C 337.777344 207.226562 337.207031 206.46875 336.324219 205.835938 C 335.839844 205.335938 335.273438 204.980469 334.617188 204.757812 C 318.046875 202.734375 301.417969 201.089844 284.851562 199 C 268.28125 196.910156 252.980469 194.761719 236.980469 192.609375 C 238.375 188.136719 239.890625 183.707031 241.535156 179.316406 L 242.230469 179.824219 C 256.269531 186.660156 271.003906 191.597656 286.558594 193.558594 C 294.351562 194.5625 302.171875 194.835938 310.015625 194.378906 C 318.492188 193.9375 326.835938 192.230469 335.3125 192.863281 C 335.816406 192.925781 335.816406 192.609375 335.5625 192.164062 C 335.3125 191.722656 334.996094 191.027344 334.617188 190.898438 L 334.363281 190.898438 C 334.097656 190.703125 333.800781 190.578125 333.476562 190.519531 L 332.210938 190.394531 C 316.847656 186.914062 301.480469 184.066406 285.925781 181.660156 C 278.019531 180.394531 270.054688 179.253906 262.085938 178.242188 C 255.761719 177.484375 248.679688 175.902344 242.292969 177.292969 C 242.863281 175.710938 243.496094 174.191406 244.128906 172.671875 C 244.757812 171.152344 245.644531 168.875 246.46875 166.976562 C 251.210938 172.039062 257.847656 174.636719 264.742188 176.152344 C 271.632812 177.671875 279.726562 178.9375 287.316406 179.886719 C 301.480469 181.722656 316.214844 182.101562 331.199219 177.417969 C 331.960938 177.167969 331.644531 176.40625 331.011719 175.835938 C 330.707031 175.351562 330.285156 175.015625 329.746094 174.824219 C 315.835938 173.304688 301.796875 172.101562 287.886719 170.519531 C 273.972656 168.9375 260.695312 167.167969 247.097656 165.394531 C 248.617188 161.914062 250.199219 158.433594 251.84375 155.015625 C 251.90625 155.457031 252.789062 156.15625 253.167969 156.34375 C 266.953125 161.472656 281.121094 165.015625 295.726562 166.21875 C 301.636719 166.820312 307.539062 166.757812 313.433594 166.027344 C 318.996094 165.269531 325.574219 163.75 329.808594 159.824219 C 329.863281 159.789062 329.90625 159.746094 329.933594 159.6875 C 329.964844 159.632812 329.980469 159.574219 329.980469 159.507812 C 329.980469 159.445312 329.964844 159.386719 329.933594 159.328125 C 329.90625 159.273438 329.863281 159.226562 329.808594 159.191406 C 329.808594 159.066406 329.746094 159.003906 329.621094 159.003906 L 329.492188 159.003906 C 329.117188 158.789062 328.71875 158.640625 328.292969 158.558594 C 317.101562 154.699219 305.148438 155.332031 293.511719 155.140625 C 279.855469 154.890625 266.195312 154.699219 252.539062 154.761719 C 252.335938 154.75 252.144531 154.792969 251.96875 154.890625 C 253.800781 151.15625 255.699219 147.484375 257.722656 143.878906 L 259.429688 143.878906 C 261.894531 144.761719 264.617188 145.144531 267.207031 145.648438 C 269.800781 146.15625 273.972656 146.914062 277.386719 147.421875 C 283.902344 148.371094 290.414062 149.128906 296.929688 149.574219 C 310.207031 150.332031 323.675781 150.207031 336.828125 148.433594 C 337.269531 148.371094 338.15625 147.929688 337.335938 147.613281 C 324.8125 143.371094 312.167969 140.585938 298.886719 140.269531 C 285.609375 139.953125 272.078125 142.421875 258.542969 142.359375 L 260.632812 138.75 L 260.695312 138.75 C 273.277344 139.511719 285.796875 137.421875 297.941406 134.511719 C 304.136719 132.992188 310.207031 131.21875 316.277344 129.511719 C 322.347656 127.800781 328.164062 126.15625 333.667969 123.371094 C 334.742188 122.738281 333.476562 122.234375 332.84375 122.234375 Z M 332.84375 122.234375 " fill-opacity="1" fill-rule="nonzero"/></g><path fill="#364546" d="M 212.320312 157.042969 C 215.878906 161.785156 219.925781 166.070312 224.460938 169.886719 C 228.824219 173.496094 234.390625 177.292969 240.144531 177.734375 C 240.460938 177.734375 240.585938 177.609375 240.648438 177.292969 L 240.648438 176.976562 L 240.585938 176.976562 C 240.507812 176.554688 240.339844 176.175781 240.082031 175.835938 C 235.339844 165.015625 226.738281 156.597656 218.960938 147.863281 C 209.855469 137.738281 200.6875 127.550781 191.390625 117.550781 C 190.316406 116.410156 190.378906 118.625 190.632812 119.195312 C 196.195312 132.675781 203.277344 145.523438 212.320312 157.042969 Z M 212.320312 157.042969 " fill-opacity="1" fill-rule="nonzero"/><path fill="#364546" d="M 225.601562 267.035156 L 225.980469 266.90625 L 226.167969 266.90625 Z M 225.601562 267.035156 " fill-opacity="1" fill-rule="nonzero"/><g clip-path="url(#6750f3df1f)"><g mask="url(#7eab0674d5)"><g transform="matrix(1, 0, 0, 1, 63, 120)"><g clip-path="url(#f94d360a0c)"><g clip-path="url(#a062752698)"><path fill="#984705" d="M 89.375 26.15625 L 89.375 0.96875 C 40.179688 0.96875 0.152344 41.027344 0.152344 90.265625 C 0.152344 139.503906 40.179688 179.5 89.375 179.5 L 89.375 154.375 C 54.027344 154.375 25.253906 125.578125 25.253906 90.265625 C 25.257812 89.214844 25.28125 88.167969 25.335938 87.117188 C 25.386719 86.070312 25.464844 85.023438 25.570312 83.980469 C 25.671875 82.933594 25.800781 81.894531 25.957031 80.855469 C 26.113281 79.816406 26.292969 78.785156 26.496094 77.753906 C 26.703125 76.726562 26.933594 75.703125 27.191406 74.683594 C 27.445312 73.667969 27.726562 72.65625 28.03125 71.652344 C 28.335938 70.648438 28.664062 69.652344 29.019531 68.664062 C 29.375 67.675781 29.75 66.695312 30.152344 65.726562 C 30.554688 64.757812 30.980469 63.796875 31.429688 62.851562 C 31.878906 61.902344 32.351562 60.964844 32.847656 60.039062 C 33.339844 59.113281 33.859375 58.203125 34.398438 57.300781 C 34.9375 56.402344 35.5 55.515625 36.082031 54.644531 C 36.667969 53.769531 37.269531 52.914062 37.894531 52.070312 C 38.519531 51.226562 39.167969 50.402344 39.832031 49.589844 C 40.496094 48.777344 41.183594 47.984375 41.886719 47.207031 C 42.59375 46.429688 43.316406 45.671875 44.058594 44.929688 C 44.800781 44.1875 45.558594 43.464844 46.335938 42.757812 C 47.113281 42.054688 47.90625 41.371094 48.71875 40.703125 C 49.53125 40.039062 50.355469 39.394531 51.199219 38.769531 C 52.042969 38.144531 52.898438 37.539062 53.769531 36.957031 C 54.644531 36.375 55.53125 35.8125 56.429688 35.273438 C 57.328125 34.734375 58.242188 34.21875 59.167969 33.722656 C 60.089844 33.230469 61.027344 32.757812 61.976562 32.308594 C 62.925781 31.859375 63.882812 31.4375 64.851562 31.035156 C 65.820312 30.632812 66.800781 30.253906 67.785156 29.902344 C 68.773438 29.550781 69.769531 29.21875 70.773438 28.914062 C 71.777344 28.609375 72.785156 28.332031 73.804688 28.078125 C 74.820312 27.820312 75.84375 27.59375 76.875 27.386719 C 77.902344 27.183594 78.933594 27.003906 79.972656 26.847656 C 81.007812 26.695312 82.050781 26.566406 83.09375 26.464844 C 84.136719 26.363281 85.183594 26.285156 86.230469 26.234375 C 87.277344 26.179688 88.324219 26.15625 89.375 26.15625 Z M 89.375 26.15625 " fill-opacity="1" fill-rule="nonzero"/></g></g></g></g></g><g clip-path="url(#b19d131b60)"><path fill="#843505" d="M 191.390625 62.488281 C 191.390625 63.769531 191.328125 65.042969 191.203125 66.316406 C 191.078125 67.589844 190.890625 68.855469 190.640625 70.109375 C 190.390625 71.363281 190.082031 72.601562 189.710938 73.824219 C 189.339844 75.050781 188.910156 76.25 188.421875 77.433594 C 187.929688 78.613281 187.386719 79.769531 186.785156 80.898438 C 186.179688 82.023438 185.523438 83.121094 184.816406 84.183594 C 184.105469 85.246094 183.34375 86.273438 182.535156 87.261719 C 181.722656 88.25 180.867188 89.195312 179.960938 90.101562 C 179.058594 91.003906 178.113281 91.863281 177.125 92.675781 C 176.136719 93.484375 175.113281 94.246094 174.050781 94.957031 C 172.988281 95.667969 171.894531 96.324219 170.765625 96.925781 C 169.640625 97.53125 168.484375 98.078125 167.304688 98.566406 C 166.125 99.054688 164.921875 99.484375 163.699219 99.855469 C 162.476562 100.226562 161.238281 100.539062 159.984375 100.789062 C 158.734375 101.039062 157.46875 101.226562 156.199219 101.351562 C 154.925781 101.476562 153.652344 101.539062 152.375 101.539062 C 151.097656 101.539062 149.820312 101.476562 148.550781 101.351562 C 147.277344 101.226562 146.015625 101.039062 144.761719 100.789062 C 143.511719 100.539062 142.273438 100.226562 141.050781 99.855469 C 139.828125 99.484375 138.625 99.054688 137.445312 98.566406 C 136.261719 98.078125 135.109375 97.53125 133.984375 96.925781 C 132.855469 96.324219 131.761719 95.667969 130.699219 94.957031 C 129.636719 94.246094 128.609375 93.484375 127.625 92.675781 C 126.636719 91.863281 125.691406 91.003906 124.785156 90.101562 C 123.882812 89.195312 123.027344 88.25 122.214844 87.261719 C 121.40625 86.273438 120.644531 85.246094 119.933594 84.183594 C 119.222656 83.121094 118.566406 82.023438 117.964844 80.898438 C 117.363281 79.769531 116.816406 78.613281 116.328125 77.433594 C 115.839844 76.25 115.410156 75.050781 115.039062 73.824219 C 114.667969 72.601562 114.359375 71.363281 114.109375 70.109375 C 113.859375 68.855469 113.671875 67.589844 113.546875 66.316406 C 113.421875 65.042969 113.359375 63.769531 113.359375 62.488281 C 113.359375 61.210938 113.421875 59.933594 113.546875 58.664062 C 113.671875 57.390625 113.859375 56.125 114.109375 54.871094 C 114.359375 53.617188 114.667969 52.378906 115.039062 51.15625 C 115.410156 49.929688 115.839844 48.730469 116.328125 47.546875 C 116.816406 46.367188 117.363281 45.210938 117.964844 44.082031 C 118.566406 42.957031 119.222656 41.859375 119.933594 40.796875 C 120.644531 39.734375 121.40625 38.707031 122.214844 37.71875 C 123.027344 36.730469 123.882812 35.785156 124.785156 34.878906 C 125.691406 33.976562 126.636719 33.117188 127.625 32.304688 C 128.609375 31.496094 129.636719 30.734375 130.699219 30.023438 C 131.761719 29.3125 132.855469 28.65625 133.984375 28.054688 C 135.109375 27.449219 136.261719 26.902344 137.445312 26.414062 C 138.625 25.925781 139.828125 25.496094 141.050781 25.125 C 142.273438 24.753906 143.511719 24.441406 144.761719 24.191406 C 146.015625 23.941406 147.277344 23.753906 148.550781 23.628906 C 149.820312 23.503906 151.097656 23.441406 152.375 23.441406 C 153.652344 23.441406 154.925781 23.503906 156.199219 23.628906 C 157.46875 23.753906 158.734375 23.941406 159.984375 24.191406 C 161.238281 24.441406 162.476562 24.753906 163.699219 25.125 C 164.921875 25.496094 166.125 25.925781 167.304688 26.414062 C 168.484375 26.902344 169.640625 27.449219 170.765625 28.054688 C 171.894531 28.65625 172.988281 29.3125 174.050781 30.023438 C 175.113281 30.734375 176.136719 31.496094 177.125 32.304688 C 178.113281 33.117188 179.058594 33.976562 179.960938 34.878906 C 180.867188 35.785156 181.722656 36.730469 182.535156 37.71875 C 183.34375 38.707031 184.105469 39.734375 184.816406 40.796875 C 185.523438 41.859375 186.179688 42.957031 186.785156 44.082031 C 187.386719 45.210938 187.929688 46.367188 188.421875 47.546875 C 188.910156 48.730469 189.339844 49.929688 189.710938 51.15625 C 190.082031 52.378906 190.390625 53.617188 190.640625 54.871094 C 190.890625 56.125 191.078125 57.390625 191.203125 58.664062 C 191.328125 59.933594 191.390625 61.210938 191.390625 62.488281 Z M 191.390625 62.488281 " fill-opacity="1" fill-rule="nonzero"/></g><g fill="#843505" fill-opacity="1"><g transform="translate(67.497579, 350.612089)"><g><path d="M 24.78125 -21.875 L 24.78125 0 L 21.90625 0 L 21.90625 -16.3125 L 14.640625 0 L 12.609375 0 L 5.3125 -16.34375 L 5.3125 0 L 2.4375 0 L 2.4375 -21.875 L 5.53125 -21.875 L 13.625 -3.796875 L 21.71875 -21.875 Z M 24.78125 -21.875 "/></g></g></g><g fill="#843505" fill-opacity="1"><g transform="translate(102.525809, 350.612089)"><g><path d="M 12.421875 0.21875 C 10.378906 0.21875 8.515625 -0.257812 6.828125 -1.21875 C 5.140625 -2.175781 3.804688 -3.515625 2.828125 -5.234375 C 1.847656 -6.953125 1.359375 -8.882812 1.359375 -11.03125 C 1.359375 -13.175781 1.847656 -15.109375 2.828125 -16.828125 C 3.804688 -18.546875 5.140625 -19.882812 6.828125 -20.84375 C 8.515625 -21.800781 10.378906 -22.28125 12.421875 -22.28125 C 14.484375 -22.28125 16.359375 -21.800781 18.046875 -20.84375 C 19.734375 -19.882812 21.0625 -18.550781 22.03125 -16.84375 C 23 -15.132812 23.484375 -13.195312 23.484375 -11.03125 C 23.484375 -8.863281 23 -6.925781 22.03125 -5.21875 C 21.0625 -3.507812 19.734375 -2.175781 18.046875 -1.21875 C 16.359375 -0.257812 14.484375 0.21875 12.421875 0.21875 Z M 12.421875 -2.28125 C 13.960938 -2.28125 15.347656 -2.632812 16.578125 -3.34375 C 17.804688 -4.0625 18.773438 -5.082031 19.484375 -6.40625 C 20.191406 -7.738281 20.546875 -9.28125 20.546875 -11.03125 C 20.546875 -12.800781 20.191406 -14.34375 19.484375 -15.65625 C 18.773438 -16.976562 17.8125 -17.992188 16.59375 -18.703125 C 15.375 -19.421875 13.984375 -19.78125 12.421875 -19.78125 C 10.859375 -19.78125 9.46875 -19.421875 8.25 -18.703125 C 7.03125 -17.992188 6.066406 -16.976562 5.359375 -15.65625 C 4.648438 -14.34375 4.296875 -12.800781 4.296875 -11.03125 C 4.296875 -9.28125 4.648438 -7.738281 5.359375 -6.40625 C 6.066406 -5.082031 7.035156 -4.0625 8.265625 -3.34375 C 9.492188 -2.632812 10.878906 -2.28125 12.421875 -2.28125 Z M 12.421875 -2.28125 "/></g></g></g><g fill="#843505" fill-opacity="1"><g transform="translate(135.183294, 350.612089)"><g><path d="M 14.375 0 L 5.3125 -10.046875 L 5.3125 0 L 2.4375 0 L 2.4375 -22.03125 L 5.3125 -22.03125 L 5.3125 -11.828125 L 14.40625 -22.03125 L 18.046875 -22.03125 L 8.0625 -11 L 18.140625 0 Z M 14.375 0 "/></g></g></g><g fill="#843505" fill-opacity="1"><g transform="translate(161.929773, 350.612089)"><g><path d="M 15.453125 -4.90625 L 5.84375 -4.90625 L 4.078125 0 L 1.046875 0 L 9.015625 -21.90625 L 12.328125 -21.90625 L 20.265625 0 L 17.234375 0 Z M 14.640625 -7.234375 L 10.65625 -18.359375 L 6.671875 -7.234375 Z M 14.640625 -7.234375 "/></g></g></g><g fill="#843505" fill-opacity="1"><g transform="translate(191.046979, 350.612089)"><g/></g></g><g fill="#843505" fill-opacity="1"><g transform="translate(207.299021, 350.612089)"><g><path d="M 24.78125 -21.875 L 24.78125 0 L 21.90625 0 L 21.90625 -16.3125 L 14.640625 0 L 12.609375 0 L 5.3125 -16.34375 L 5.3125 0 L 2.4375 0 L 2.4375 -21.875 L 5.53125 -21.875 L 13.625 -3.796875 L 21.71875 -21.875 Z M 24.78125 -21.875 "/></g></g></g><g fill="#843505" fill-opacity="1"><g transform="translate(242.327251, 350.612089)"><g><path d="M 5.3125 -19.6875 L 5.3125 -12.328125 L 13.34375 -12.328125 L 13.34375 -9.953125 L 5.3125 -9.953125 L 5.3125 -2.375 L 14.28125 -2.375 L 14.28125 0 L 2.4375 0 L 2.4375 -22.0625 L 14.28125 -22.0625 L 14.28125 -19.6875 Z M 5.3125 -19.6875 "/></g></g></g><g fill="#843505" fill-opacity="1"><g transform="translate(266.355272, 350.612089)"><g><path d="M 5.3125 -19.6875 L 5.3125 -12.328125 L 13.34375 -12.328125 L 13.34375 -9.953125 L 5.3125 -9.953125 L 5.3125 -2.375 L 14.28125 -2.375 L 14.28125 0 L 2.4375 0 L 2.4375 -22.0625 L 14.28125 -22.0625 L 14.28125 -19.6875 Z M 5.3125 -19.6875 "/></g></g></g><g fill="#843505" fill-opacity="1"><g transform="translate(290.38331, 350.612089)"><g><path d="M 16 -22.03125 L 16 -19.6875 L 9.984375 -19.6875 L 9.984375 0 L 7.109375 0 L 7.109375 -19.6875 L 1.078125 -19.6875 L 1.078125 -22.03125 Z M 16 -22.03125 "/></g></g></g></svg>